<svg width="134" height="114" viewBox="0 0 134 114" fill="none" xmlns="http://www.w3.org/2000/svg">
<path fill-rule="evenodd" clip-rule="evenodd" d="M85.3972 0.415189C77.3159 2.23558 70.3247 8.65779 67.6731 16.6971C66.5556 20.0858 66.4695 27.5294 67.5124 30.6222C68.9903 35.0049 71.2339 38.603 74.212 41.3656C74.8989 42.0029 75.3857 42.5726 75.2939 42.6315C75.202 42.6905 73.6758 43.4714 71.9028 44.3665C59.1579 50.8007 50.7447 60.0361 47.8499 70.7701C47.1353 73.4191 47.0218 74.6948 47.0275 79.9932C47.0326 84.8525 47.1699 86.597 47.6823 88.3121C48.487 91.0056 49.7591 93.0094 51.1105 93.7107L52.143 94.2467L53.1426 90.3752C55.125 82.6958 61.7973 64.273 64.122 60.0607C65.0442 58.3893 65.1855 57.883 61.9789 67.7438C57.5777 81.279 55.9081 87.9645 55.08 95.3651C54.7243 98.5444 54.7542 98.9563 55.476 100.877C58.0779 107.8 64.7476 111.869 76.2078 113.524C80.601 114.158 100.279 114.159 104.677 113.525C115.309 111.991 121.874 108.376 124.858 102.41C125.832 100.462 125.936 99.9257 125.904 96.9927C125.84 90.9467 123.946 82.8513 119.154 68.1478C117.485 63.0251 116.165 58.8342 116.22 58.8342C116.437 58.8342 118.695 63.9532 120.553 68.6545C123.128 75.1715 126.246 84.4142 127.612 89.578C128.217 91.8657 128.838 93.872 128.993 94.0366C129.475 94.5506 131.759 92.1974 132.536 90.3846C133.764 87.5186 134.149 84.212 133.951 78.2412C133.813 74.0983 133.576 72.0967 132.982 70.0467C130.053 59.9359 122.12 51.2709 109.819 44.7438L105.591 42.5006L106.676 41.5844C109.592 39.1213 112.558 34.0572 113.732 29.5372C114.528 26.4704 114.513 21.0674 113.7 17.963C111.626 10.0507 105.272 3.39589 97.4696 0.964959C94.187 -0.0575435 88.6221 -0.311088 85.3972 0.415189ZM24.8929 16.7036C16.3633 19.1082 11.3249 27.6376 13.472 36.0386C14.1647 38.7487 15.1816 40.6183 17.2343 42.9563L18.6952 44.6204L16.8202 45.4881C9.54579 48.8544 3.30022 55.2083 1.01115 61.5715C0.0457187 64.2545 -0.329426 71.3014 0.334736 74.2788C0.735828 76.0775 2.4602 78.7273 3.22995 78.7273C3.38563 78.7273 3.62455 78.1171 3.76113 77.3709C4.36295 74.0824 10.5714 56.6999 11.4085 55.9609C11.5336 55.8503 11.5188 56.0854 11.3754 56.4832C11.2316 56.8811 10.2186 60.0549 9.12344 63.5362C6.98032 70.3508 5.92444 74.7237 5.37451 79.0615C5.03684 81.7246 5.05883 81.8657 6.14246 84.0778C8.94073 89.7907 14.7196 91.7898 28.4587 91.7981C35.4085 91.8024 39.5315 91.4671 42.5557 90.6512L43.8595 90.2992L43.3939 88.2886C42.191 83.0951 42.4508 74.7082 43.9921 68.9681C44.3921 67.4797 45.3302 64.9533 46.0769 63.3536L47.4347 60.4452L46.8037 58.6451C45.8693 55.9794 45.9943 55.4803 47.0344 57.7231L47.945 59.6867L48.8957 58.2656C49.4182 57.4844 50.3883 56.1736 51.0514 55.3529L52.2565 53.8606L49.9973 51.7606C47.4913 49.431 43.6566 46.8134 40.809 45.4885L38.9448 44.6212L40.5048 42.7758C45.6376 36.7045 46.0084 28.7335 41.4418 22.6339C37.6528 17.5728 30.6768 15.0731 24.8929 16.7036Z" fill="#445671"/>
</svg>
